<?xml version="1.0" encoding="utf-8"?>
<!-- Generator: Adobe Illustrator 23.0.3, SVG Export Plug-In . SVG Version: 6.00 Build 0)  -->
<svg width="420" height="315" version="1.1" id="Layer_1" xmlns="http://www.w3.org/2000/svg" xmlns:xlink="http://www.w3.org/1999/xlink" x="0px" y="0px"
	 viewBox="0 0 1920 1080" style="enable-background:new 0 0 1920 1080;" xml:space="preserve">
<style type="text/css">
	.st0{fill:url(#SVGID_1_);}
	.st1{display:none;}
	.st2{display:inline;}
	.st3{fill:#F44C4C;}
	.st4{fill:#FC7E7E;}
	.st5{fill:#CD111E;}
	.st6{fill:#0FB400;}
	.st7{opacity:0.6;fill:#0FB400;}
	.st8{display:inline;stroke:url(#SVGID_2_);stroke-width:16;stroke-miterlimit:10;stroke-opacity:0;}
	.st9{fill:#FFFFFF;}
	.st10{stroke:#FFFFFF;stroke-width:15;stroke-miterlimit:10;stroke-opacity:0;}
	.st11{fill:#6FD266;}
	.st12{fill:none;stroke:#000000;stroke-width:16;stroke-miterlimit:10;}
	.st13{stroke:#FFFFFF;stroke-width:20;stroke-miterlimit:10;stroke-opacity:0;}
	.st14{display:inline;fill:#F44C4C;}
	.st15{display:inline;fill:#FC7E7E;}
	.st16{display:inline;fill:#CD111E;}
	.st17{display:inline;fill:#0FB400;}
	.st18{display:inline;fill:#6FD266;}
	.st19{display:inline;fill:#EAEA3D;stroke:#FFFFFF;stroke-width:15;stroke-miterlimit:10;stroke-opacity:0;}
</style>
<radialGradient id="SVGID_1_" cx="959.5" cy="541" r="779.8475" gradientUnits="userSpaceOnUse">
	<stop  offset="0" style="stop-color:#FFFFFF"/>
	<stop  offset="1" style="stop-color:#29ABE2"/>
</radialGradient>
<rect x="-1" y="-1" class="st0" width="1921" height="1084"/>
<g class="st1">
	<g class="st2">
		<g>
			<path d="M921.02,502.67c1.27-19.65,17.09-35.64,36.73-37.08c1.7-0.13,3.38-0.14,5.03-0.06c0,0-2.02,7.42-2.02,18.62
				c0,16.18,1.24,19.91,1.24,19.91s3.73,1.25,18.67,1.24c12.45,0,19.86-2.1,19.86-2.1c0.11,2.2,0.05,4.45-0.21,6.73
				c-2.07,18.35-16.87,33.03-35.23,34.97C940.27,547.53,919.43,527.31,921.02,502.67z"/>
		</g>
		<path class="st3" d="M958.27,806.5c0,0,13.07-128.82-97.58-228.18c-97.52-87.57-203.62-73.03-203.62-73.03
			s-6.85,111.39,84.01,208.48S958.27,806.5,958.27,806.5"/>
		<path class="st4" d="M958.02,203.49c0,0-111.39-6.85-208.48,84.01s-92.73,217.19-92.73,217.19s128.82,13.07,228.18-97.58
			C972.55,309.58,958.02,203.49,958.02,203.49z"/>
		<path class="st5" d="M958.89,806.25c0,0,111.39,6.85,208.48-84.01s92.73-217.19,92.73-217.19s-128.82-13.07-228.18,97.58
			C944.35,700.15,958.89,806.25,958.89,806.25"/>
		<path class="st6" d="M967.6,497.58l301.2-301.2c0,0-128.82-13.07-228.18,97.58C953.06,391.48,967.6,497.58,967.6,497.58z"/>
		<path class="st7" d="M967.6,497.58c0,0,111.39,6.85,208.48-84.01s92.73-217.19,92.73-217.19L967.6,497.58z"/>
	</g>
	<radialGradient id="SVGID_2_" cx="1031.6814" cy="787.4933" r="389.8201" gradientUnits="userSpaceOnUse">
		<stop  offset="0" style="stop-color:#FFFFFF"/>
		<stop  offset="1" style="stop-color:#000000"/>
	</radialGradient>
	<path class="st8" d="M1328.17,682.77c20.08,14.19,84.66,41.53,152.48,69.29c22.45,7.22,44.91,14.45,67.36,21.67
		c-15.13,65.95-46.39,123.37-105.35,148.21c-20.63,8.69-44.64,19.47-69.64,22.81c-8.85-12.85-43.66-34.09-85.95-45.79
		c-18.65-5.16-133.15-47.3-294.33-11.87c-12.45,2.74-63.78,19.11-78.98,15.3c-19.46-4.89-185.02-118.1-205.29-129.54
		c-103.61-58.45-129.06-58.99-147.6-67.01c-17.8-7.7-38.26-2.38-45.53-20.13c-3.36-8.2,0.02-19.25,2.28-25.09
		c8.94-23.01,68.65-32.31,75.35-30.79c58.92,13.4,115.07,29.73,170.1,47.9c10.34,3.41,51.43,10.49,53.66,18.25
		c-2.91,3.73-2.02,8.02-3.42,13.68c-7.16,28.82,7.62,54.49,23.97,67.28c11.4,8.91,23.9,15.81,39.96,20.53
		c30.18,8.87,94.54,6.86,125.58,0c16.86-3.72,123.51-35.06,127.84-37.85c-30.16-11.84-155.24,11.24-172.36,11.62
		c-24.84,5.29-67.17,6.83-87.9-2.28c-17.7-7.78-37.99-16.85-29.68-46.27c10.75-38.08,52.18-34.34,92.47-43.33
		c46.93-7.7,195.86-21.69,229.46-31.93c11.57-3.53,45.03-16.52,56.57-16.51C1297.62,630.94,1293.97,658.59,1328.17,682.77z"/>
</g>
<g>
	<path d="M1350.41,831.19l0.19-66.07c0,0-165.34,4.22-265.59-34.58c-121.6-47.07-127.89-162.33-245.34-234.14
		c-91.79-56.13-232.43-47.6-232.43-47.6l-0.05,77.69L392.09,414.01l215.24-112.23l-0.04,66.07c0,0,178.22-13.47,297.66,54.58
		c107.57,61.28,122.19,174.85,194.48,220.11c89.53,56.05,251.4,41.63,251.4,41.63l0.22-77.69l214.85,112.88L1350.41,831.19z"/>
	<g>
		<g>
			<g>
				<path class="st9" d="M922.02,533.67c1.27-19.65,17.09-35.64,36.73-37.08c1.7-0.13,3.38-0.14,5.03-0.06c0,0-2.02,7.42-2.02,18.62
					c0,16.18,1.24,19.91,1.24,19.91s3.73,1.25,18.67,1.24c12.45,0,19.86-2.1,19.86-2.1c0.11,2.2,0.05,4.45-0.21,6.73
					c-2.07,18.35-16.87,33.03-35.23,34.97C941.27,578.53,920.43,558.31,922.02,533.67z"/>
			</g>
			<path class="st3" d="M959.27,837.5c0,0,13.07-128.82-97.58-228.18c-97.52-87.57-203.62-73.03-203.62-73.03
				s-6.85,111.39,84.01,208.48S959.27,837.5,959.27,837.5"/>
			<path class="st4" d="M959.02,234.49c0,0-111.39-6.85-208.48,84.01s-92.73,217.19-92.73,217.19s128.82,13.07,228.18-97.58
				C973.55,340.58,959.02,234.49,959.02,234.49z"/>
			<path class="st5" d="M959.89,837.25c0,0,111.39,6.85,208.48-84.01s92.73-217.19,92.73-217.19s-128.82-13.07-228.18,97.58
				C945.35,731.15,959.89,837.25,959.89,837.25"/>
			<path class="st6" d="M968.6,528.58l301.2-301.2c0,0-128.82-13.07-228.18,97.58C954.06,422.48,968.6,528.58,968.6,528.58z"/>
			<path class="st7" d="M968.6,528.58c0,0,111.39,6.85,208.48-84.01s92.73-217.19,92.73-217.19L968.6,528.58z"/>
		</g>
	</g>
	<g>
		<path class="st10" d="M1144.49,747.42c1.02,28.84,9.82,49.69,39.15,49.69c22.27,0,33.86-15.84,33.86-38.7
			c0-28.14-11.71-42.74-50.77-60.03c-75.95-32.61-106.22-63.21-106.22-130.03c0-66.68,44.41-113.64,119.88-113.64
			c84.68,0,119.44,40.67,121.08,113.04h-85.33c-0.8-28.69-11.43-44.25-35.5-44.25c-21.03,0-31.22,13.91-31.22,36.25
			c0,23.4,12.92,37.37,55.21,55.34c73.89,30.82,103.67,67.65,103.67,131.22c0,71.06-37.22,119.59-126.23,119.59
			c-93.46,0-124.18-52.4-125.86-118.49H1144.49z M1152.35,477.34v-52.46h62.06v52.46H1152.35z M1152.35,906.11v-51.92h62.06v51.92
			H1152.35z"/>
	</g>
</g>
<g class="st1">
	<g class="st2">
		<path d="M1044,586c-24-46-77-81-77-81s-77.08,37.41-140,37v0c-0.17,0-0.33,0-0.5,0c-0.17,0-0.33,0-0.5,0v0
			c-62.92,0.41-140-37-140-37s-53,35-77,81c-31.52,60.42-47,258-47,258h264.23h0.54H1091C1091,844,1075.52,646.42,1044,586z"/>
		<g>
			<g>
				<path class="st9" d="M933.23,656.2c0.23-3.55,3.08-6.43,6.63-6.69c0.31-0.02,0.61-0.03,0.91-0.01c0,0-0.36,1.34-0.36,3.36
					c0,2.92,0.22,3.59,0.22,3.59s0.67,0.22,3.37,0.22c2.25,0,3.58-0.38,3.58-0.38c0.02,0.4,0.01,0.8-0.04,1.21
					c-0.37,3.31-3.04,5.96-6.36,6.31C936.71,664.29,932.95,660.64,933.23,656.2z"/>
			</g>
			<path class="st3" d="M886.05,654.66c0,0-1.24,20.1,15.16,37.62c16.4,17.52,39.19,16.73,39.19,16.73s2.36-21.24-17.61-39.17
				C905.2,654.05,886.05,654.66,886.05,654.66z"/>
			<path class="st4" d="M940.36,600.2c0,0-20.1-1.24-37.62,15.16c-17.52,16.4-16.73,39.19-16.73,39.19s23.25,4.37,41.18-15.6
				C942.98,621.35,940.36,600.2,940.36,600.2z"/>
			<path class="st5" d="M940.52,708.97c0,0,20.1,1.24,37.62-15.16c17.52-16.4,16.73-37.18,16.73-37.18s-23.25-2.36-41.18,17.61
				C937.89,691.84,940.52,708.97,940.52,708.97z"/>
			<path class="st6" d="M941.64,655.28l54.35-56.36c0,0-23.25-2.36-41.18,17.61C939.02,634.12,941.64,655.28,941.64,655.28z"/>
			<path class="st11" d="M941.64,655.28c0,0,20.1,1.24,37.62-15.16c17.52-16.4,16.73-41.2,16.73-41.2L941.64,655.28z"/>
		</g>
		<ellipse class="st12" cx="815.73" cy="345.5" rx="166.63" ry="176.5"/>
		<path class="st13" d="M823.66,154c0,0-75-2-127,29c-78.35,46.71-57,134-57,134s67.78,6.43,94-14
			C762.19,280.77,823.66,154,823.66,154z"/>
		<path class="st13" d="M728.66,172c0,0,136.25-50.82,220,22c46,40,54,148,54,148s-187.22-67.31-217-92
			C752.56,222.57,728.66,172,728.66,172z"/>
	</g>
	<g class="st2">
		<path class="st13" d="M1392,649c-24-46-77-81-77-81s-77.08,37.41-140,37v0c-0.17,0-0.33,0-0.5,0c-0.17,0-0.33,0-0.5,0v0
			c-62.92,0.41-140-37-140-37s-53,35-77,81c-31.52,60.42-47,258-47,258h264.23h0.54H1439C1439,907,1423.52,709.42,1392,649z"/>
		<g>
			<g>
				<path class="st9" d="M1284.23,730.2c0.23-3.55,3.08-6.43,6.63-6.69c0.31-0.02,0.61-0.03,0.91-0.01c0,0-0.36,1.34-0.36,3.36
					c0,2.92,0.22,3.59,0.22,3.59s0.67,0.22,3.37,0.22c2.25,0,3.58-0.38,3.58-0.38c0.02,0.4,0.01,0.8-0.04,1.21
					c-0.37,3.31-3.04,5.96-6.36,6.31C1287.71,738.29,1283.95,734.64,1284.23,730.2z"/>
			</g>
			<path class="st3" d="M1237.05,728.66c0,0-1.24,20.1,15.16,37.62s39.19,16.73,39.19,16.73s2.36-21.24-17.61-39.17
				C1256.2,728.05,1237.05,728.66,1237.05,728.66z"/>
			<path class="st4" d="M1291.36,674.2c0,0-20.1-1.24-37.62,15.16c-17.52,16.4-16.73,39.19-16.73,39.19s23.25,4.37,41.18-15.6
				C1293.98,695.35,1291.36,674.2,1291.36,674.2z"/>
			<path class="st5" d="M1291.52,782.97c0,0,20.1,1.24,37.62-15.16c17.52-16.4,16.73-37.18,16.73-37.18s-23.25-2.36-41.18,17.61
				C1288.89,765.84,1291.52,782.97,1291.52,782.97z"/>
			<path class="st6" d="M1292.64,729.28l54.35-56.36c0,0-23.25-2.36-41.18,17.61C1290.02,708.12,1292.64,729.28,1292.64,729.28z"/>
			<path class="st11" d="M1292.64,729.28c0,0,20.1,1.24,37.62-15.16c17.52-16.4,16.73-41.2,16.73-41.2L1292.64,729.28z"/>
		</g>
		<ellipse class="st12" cx="1176.21" cy="414.5" rx="166.63" ry="176.5"/>
		<path class="st13" d="M1186.66,227c0,0-75-2-127,29c-78.35,46.71-57,134-57,134s67.78,6.43,94-14
			C1125.19,353.77,1186.66,227,1186.66,227z"/>
		<path class="st13" d="M1091.66,245c0,0,136.25-50.82,220,22c46,40,54,148,54,148s-187.22-67.31-217-92
			C1115.56,295.57,1091.66,245,1091.66,245z"/>
	</g>
</g>
<g class="st1">
	<g class="st2">
		<path d="M519,640c24-46,77-81,77-81s77.08,37.41,140,37v0c0.17,0,0.33,0,0.5,0c0.17,0,0.33,0,0.5,0v0c62.92,0.41,140-37,140-37
			s53,35,77,81c31.52,60.42,47,258,47,258H736.77h-0.54H472C472,898,487.48,700.42,519,640z"/>
		<g class="st1">
			<g class="st2">
				<path class="st9" d="M614.23,710.2c0.23-3.55,3.08-6.43,6.63-6.69c0.31-0.02,0.61-0.03,0.91-0.01c0,0-0.36,1.34-0.36,3.36
					c0,2.92,0.22,3.59,0.22,3.59s0.67,0.22,3.37,0.22c2.25,0,3.58-0.38,3.58-0.38c0.02,0.4,0.01,0.8-0.04,1.21
					c-0.37,3.31-3.04,5.96-6.36,6.31C617.71,718.29,613.95,714.64,614.23,710.2z"/>
			</g>
			<path class="st14" d="M567.05,708.66c0,0-1.24,20.1,15.16,37.62c16.4,17.52,39.19,16.73,39.19,16.73s2.36-21.24-17.61-39.17
				C586.2,708.05,567.05,708.66,567.05,708.66z"/>
			<path class="st15" d="M621.36,654.2c0,0-20.1-1.24-37.62,15.16c-17.52,16.4-16.73,39.19-16.73,39.19s23.25,4.37,41.18-15.6
				C623.98,675.35,621.36,654.2,621.36,654.2z"/>
			<path class="st16" d="M621.52,762.97c0,0,20.1,1.24,37.62-15.16c17.52-16.4,16.73-37.18,16.73-37.18s-23.25-2.36-41.18,17.61
				C618.89,745.84,621.52,762.97,621.52,762.97z"/>
			<path class="st17" d="M622.64,709.28l54.35-56.36c0,0-23.25-2.36-41.18,17.61C620.02,688.12,622.64,709.28,622.64,709.28z"/>
			<path class="st18" d="M622.64,709.28c0,0,20.1,1.24,37.62-15.16c17.52-16.4,16.73-41.2,16.73-41.2L622.64,709.28z"/>
		</g>
		<ellipse class="st12" cx="747.27" cy="399.5" rx="166.63" ry="176.5"/>
		<path class="st13" d="M739.34,208c0,0,75-2,127,29c78.35,46.71,57,134,57,134s-67.78,6.43-94-14
			C800.81,334.77,739.34,208,739.34,208z"/>
		<path class="st13" d="M834.34,226c0,0-136.25-50.82-220,22c-46,40-54,148-54,148s187.22-67.31,217-92
			C810.44,276.57,834.34,226,834.34,226z"/>
	</g>
	<g class="st2">
		<path class="st13" d="M1495,639c-24-46-77-81-77-81s-77.08,37.41-140,37v0c-0.17,0-0.33,0-0.5,0c-0.17,0-0.33,0-0.5,0v0
			c-62.92,0.41-140-37-140-37s-53,35-77,81c-31.52,60.42-47,258-47,258h264.23h0.54H1542C1542,897,1526.52,699.42,1495,639z"/>
		<g class="st1">
			<g class="st2">
				<path class="st9" d="M1414.23,711.2c0.23-3.55,3.08-6.43,6.63-6.69c0.31-0.02,0.61-0.03,0.91-0.01c0,0-0.36,1.34-0.36,3.36
					c0,2.92,0.22,3.59,0.22,3.59s0.67,0.22,3.37,0.22c2.25,0,3.58-0.38,3.58-0.38c0.02,0.4,0.01,0.8-0.04,1.21
					c-0.37,3.31-3.04,5.96-6.36,6.31C1417.71,719.29,1413.95,715.64,1414.23,711.2z"/>
			</g>
			<path class="st14" d="M1367.05,709.66c0,0-1.24,20.1,15.16,37.62s39.19,16.73,39.19,16.73s2.36-21.24-17.61-39.17
				C1386.2,709.05,1367.05,709.66,1367.05,709.66z"/>
			<path class="st15" d="M1421.36,655.2c0,0-20.1-1.24-37.62,15.16c-17.52,16.4-16.73,39.19-16.73,39.19s23.25,4.37,41.18-15.6
				C1423.98,676.35,1421.36,655.2,1421.36,655.2z"/>
			<path class="st16" d="M1421.52,763.97c0,0,20.1,1.24,37.62-15.16c17.52-16.4,16.73-37.18,16.73-37.18s-23.25-2.36-41.18,17.61
				C1418.89,746.84,1421.52,763.97,1421.52,763.97z"/>
			<path class="st17" d="M1422.64,710.28l54.35-56.36c0,0-23.25-2.36-41.18,17.61C1420.02,689.12,1422.64,710.28,1422.64,710.28z"/>
			<path class="st18" d="M1422.64,710.28c0,0,20.1,1.24,37.62-15.16c17.52-16.4,16.73-41.2,16.73-41.2L1422.64,710.28z"/>
		</g>
		<ellipse class="st12" cx="1279.21" cy="404.5" rx="166.63" ry="176.5"/>
		<path class="st13" d="M1289.66,217c0,0-75-2-127,29c-78.35,46.71-57,134-57,134s67.78,6.43,94-14
			C1228.19,343.77,1289.66,217,1289.66,217z"/>
		<path class="st13" d="M1194.66,235c0,0,136.25-50.82,220,22c46,40,54,148,54,148s-187.22-67.31-217-92
			C1218.56,285.57,1194.66,235,1194.66,235z"/>
	</g>
	<polygon class="st19" points="1033.5,271.5 1220,274.5 1038.5,517.5 1139.5,517.5 861,833.5 971,534.5 931.5,534.5 	"/>
</g>
</svg>
