<?xml version="1.0" encoding="utf-8"?>
<!-- Generator: Adobe Illustrator 23.0.3, SVG Export Plug-In . SVG Version: 6.00 Build 0)  -->
<svg width="360" height="270" version="1.1" id="Layer_1" xmlns="http://www.w3.org/2000/svg" xmlns:xlink="http://www.w3.org/1999/xlink" x="0px" y="0px"
	 viewBox="0 0 1680 1260" style="enable-background:new 0 0 1680 1260;" xml:space="preserve">
<style type="text/css">
	.st0{fill:none;stroke:#000000;stroke-width:16;stroke-miterlimit:10;}
	.st1{stroke:#FFFFFF;stroke-width:20;stroke-miterlimit:10;stroke-opacity:0;}
	.st2{fill:#EAEA3D;stroke:#FFFFFF;stroke-width:15;stroke-miterlimit:10;stroke-opacity:0;}
	.st3{fill:url(#SVGID_1_);}
	.st4{display:none;}
	.st5{display:inline;}
	.st6{fill:#FFFFFF;}
	.st7{display:inline;fill:#F44C4C;}
	.st8{display:inline;fill:#FC7E7E;}
	.st9{display:inline;fill:#CD111E;}
	.st10{display:inline;fill:#0FB400;}
	.st11{display:inline;fill:#6FD266;}
	.st12{display:inline;fill:#EAEA3D;stroke:#FFFFFF;stroke-width:15;stroke-miterlimit:10;stroke-opacity:0;}
	.st13{fill:#F44C4C;}
	.st14{fill:#FC7E7E;}
	.st15{fill:#CD111E;}
	.st16{fill:#0FB400;}
	.st17{fill:#6FD266;}
	.st18{opacity:0.6;fill:#0FB400;}
	.st19{stroke:#FFFFFF;stroke-width:15;stroke-miterlimit:10;stroke-opacity:0;}
</style>
<path d="M347,729c24-46,77-81,77-81s77.08,37.41,140,37v0c0.17,0,0.33,0,0.5,0c0.17,0,0.33,0,0.5,0v0c62.92,0.41,140-37,140-37
	s53,35,77,81c31.52,60.42,47,258,47,258H564.77h-0.54H300C300,987,315.48,789.42,347,729z"/>
<ellipse class="st0" cx="575.27" cy="488.5" rx="166.63" ry="176.5"/>
<path class="st1" d="M567.34,297c0,0,75-2,127,29c78.35,46.71,57,134,57,134s-67.78,6.43-94-14C628.81,423.77,567.34,297,567.34,297
	z"/>
<path class="st1" d="M662.34,315c0,0-136.25-50.82-220,22c-46,40-54,148-54,148s187.22-67.31,217-92
	C638.44,365.57,662.34,315,662.34,315z"/>
<path class="st1" d="M1323,728c-24-46-77-81-77-81s-77.08,37.41-140,37v0c-0.17,0-0.33,0-0.5,0c-0.17,0-0.33,0-0.5,0v0
	c-62.92,0.41-140-37-140-37s-53,35-77,81c-31.52,60.42-47,258-47,258h264.23h0.54H1370C1370,986,1354.52,788.42,1323,728z"/>
<ellipse class="st0" cx="1107.21" cy="493.5" rx="166.63" ry="176.5"/>
<path class="st1" d="M1117.66,306c0,0-75-2-127,29c-78.35,46.71-57,134-57,134s67.78,6.43,94-14
	C1056.19,432.77,1117.66,306,1117.66,306z"/>
<path class="st1" d="M1022.66,324c0,0,136.25-50.82,220,22c46,40,54,148,54,148s-187.22-67.31-217-92
	C1046.56,374.57,1022.66,324,1022.66,324z"/>
<polygon class="st2" points="861.5,360.5 1048,363.5 866.5,606.5 967.5,606.5 689,922.5 799,623.5 759.5,623.5 "/>
<radialGradient id="SVGID_1_" cx="840.5" cy="630" r="779.8475" gradientTransform="matrix(0.8745 0 0 1.1624 105.4453 -102.2878)" gradientUnits="userSpaceOnUse">
	<stop  offset="0" style="stop-color:#FFFFFF"/>
	<stop  offset="1" style="stop-color:#29ABE2"/>
</radialGradient>
<rect x="0.5" class="st3" width="1680" height="1260"/>
<g class="st4">
	<g class="st5">
		<path d="M342.9,720.75c24-46,77-81,77-81s77.08,37.41,140,37v0c0.17,0,0.33,0,0.5,0c0.17,0,0.33,0,0.5,0v0
			c62.92,0.41,140-37,140-37s53,35,77,81c31.52,60.42,47,258,47,258H560.67h-0.54H295.9C295.9,978.75,311.38,781.16,342.9,720.75z"
			/>
		<g class="st4">
			<g class="st5">
				<path class="st6" d="M438.14,790.94c0.23-3.55,3.08-6.43,6.63-6.69c0.31-0.02,0.61-0.03,0.91-0.01c0,0-0.36,1.34-0.36,3.36
					c0,2.92,0.22,3.59,0.22,3.59s0.67,0.22,3.37,0.22c2.25,0,3.58-0.38,3.58-0.38c0.02,0.4,0.01,0.8-0.04,1.21
					c-0.37,3.31-3.04,5.96-6.36,6.31C441.61,799.04,437.85,795.39,438.14,790.94z"/>
			</g>
			<path class="st7" d="M390.96,789.41c0,0-1.24,20.1,15.16,37.62c16.4,17.52,39.19,16.73,39.19,16.73s2.36-21.24-17.61-39.17
				C410.1,788.79,390.96,789.41,390.96,789.41z"/>
			<path class="st8" d="M445.26,734.94c0,0-20.1-1.24-37.62,15.16c-17.52,16.4-16.73,39.19-16.73,39.19s23.25,4.37,41.18-15.6
				C447.89,756.1,445.26,734.94,445.26,734.94z"/>
			<path class="st9" d="M445.42,843.72c0,0,20.1,1.24,37.62-15.16c17.52-16.4,16.73-37.18,16.73-37.18s-23.25-2.36-41.18,17.61
				C442.8,826.58,445.42,843.72,445.42,843.72z"/>
			<path class="st10" d="M446.54,790.02l54.35-56.36c0,0-23.25-2.36-41.18,17.61C443.92,768.87,446.54,790.02,446.54,790.02z"/>
			<path class="st11" d="M446.54,790.02c0,0,20.1,1.24,37.62-15.16c17.52-16.4,16.73-41.2,16.73-41.2L446.54,790.02z"/>
		</g>
		<ellipse class="st0" cx="571.17" cy="480.25" rx="166.63" ry="176.5"/>
		<path class="st1" d="M563.25,288.75c0,0,75-2,127,29c78.35,46.71,57,134,57,134s-67.78,6.43-94-14
			C624.72,415.52,563.25,288.75,563.25,288.75z"/>
		<path class="st1" d="M658.25,306.75c0,0-136.25-50.82-220,22c-46,40-54,148-54,148s187.22-67.31,217-92
			C634.34,357.31,658.25,306.75,658.25,306.75z"/>
	</g>
	<g class="st5">
		<path class="st1" d="M1318.9,719.75c-24-46-77-81-77-81s-77.08,37.41-140,37v0c-0.17,0-0.33,0-0.5,0c-0.17,0-0.33,0-0.5,0v0
			c-62.92,0.41-140-37-140-37s-53,35-77,81c-31.52,60.42-47,258-47,258h264.23h0.54h264.23
			C1365.9,977.75,1350.43,780.16,1318.9,719.75z"/>
		<g class="st4">
			<g class="st5">
				<path class="st6" d="M1238.14,791.94c0.23-3.55,3.08-6.43,6.63-6.69c0.31-0.02,0.61-0.03,0.91-0.01c0,0-0.36,1.34-0.36,3.36
					c0,2.92,0.22,3.59,0.22,3.59s0.67,0.22,3.37,0.22c2.25,0,3.58-0.38,3.58-0.38c0.02,0.4,0.01,0.8-0.04,1.21
					c-0.37,3.31-3.04,5.96-6.36,6.31C1241.61,800.04,1237.85,796.39,1238.14,791.94z"/>
			</g>
			<path class="st7" d="M1190.96,790.41c0,0-1.24,20.1,15.16,37.62c16.4,17.52,39.19,16.73,39.19,16.73s2.36-21.24-17.61-39.17
				C1210.1,789.79,1190.96,790.41,1190.96,790.41z"/>
			<path class="st8" d="M1245.26,735.94c0,0-20.1-1.24-37.62,15.16c-17.52,16.4-16.73,39.19-16.73,39.19s23.25,4.37,41.18-15.6
				C1247.89,757.1,1245.26,735.94,1245.26,735.94z"/>
			<path class="st9" d="M1245.42,844.72c0,0,20.1,1.24,37.62-15.16c17.52-16.4,16.73-37.18,16.73-37.18s-23.25-2.36-41.18,17.61
				C1242.8,827.58,1245.42,844.72,1245.42,844.72z"/>
			<path class="st10" d="M1246.54,791.02l54.35-56.36c0,0-23.25-2.36-41.18,17.61C1243.92,769.87,1246.54,791.02,1246.54,791.02z"/>
			<path class="st11" d="M1246.54,791.02c0,0,20.1,1.24,37.62-15.16c17.52-16.4,16.73-41.2,16.73-41.2L1246.54,791.02z"/>
		</g>
		<ellipse class="st0" cx="1103.11" cy="485.25" rx="166.63" ry="176.5"/>
		<path class="st1" d="M1113.56,297.75c0,0-75-2-127,29c-78.35,46.71-57,134-57,134s67.78,6.43,94-14
			C1052.09,424.52,1113.56,297.75,1113.56,297.75z"/>
		<path class="st1" d="M1018.56,315.75c0,0,136.25-50.82,220,22c46,40,54,148,54,148s-187.22-67.31-217-92
			C1042.46,366.31,1018.56,315.75,1018.56,315.75z"/>
	</g>
	<polygon class="st12" points="857.4,352.25 1043.9,355.25 862.4,598.25 963.4,598.25 684.9,914.25 794.9,615.25 755.4,615.25 	"/>
</g>
<g class="st4">
	<g class="st5">
		<path d="M873.4,680.5c-24-46-77-81-77-81s-77.08,37.41-140,37v0c-0.17,0-0.33,0-0.5,0c-0.17,0-0.33,0-0.5,0v0
			c-62.92,0.41-140-37-140-37s-53,35-77,81c-31.52,60.42-47,258-47,258h264.23h0.54H920.4C920.4,938.5,904.92,740.92,873.4,680.5z"
			/>
		<g>
			<g>
				<path class="st6" d="M762.64,750.69c0.23-3.55,3.08-6.43,6.63-6.69c0.31-0.02,0.61-0.03,0.91-0.01c0,0-0.36,1.34-0.36,3.36
					c0,2.92,0.22,3.59,0.22,3.59s0.67,0.22,3.37,0.22c2.25,0,3.58-0.38,3.58-0.38c0.02,0.4,0.01,0.8-0.04,1.21
					c-0.37,3.31-3.04,5.96-6.36,6.31C766.11,758.79,762.35,755.14,762.64,750.69z"/>
			</g>
			<path class="st13" d="M715.45,749.16c0,0-1.24,20.1,15.16,37.62c16.4,17.52,39.19,16.73,39.19,16.73s2.36-21.24-17.61-39.17
				C734.6,748.55,715.45,749.16,715.45,749.16z"/>
			<path class="st14" d="M769.76,694.7c0,0-20.1-1.24-37.62,15.16c-17.52,16.4-16.73,39.19-16.73,39.19s23.25,4.37,41.18-15.6
				C772.38,715.85,769.76,694.7,769.76,694.7z"/>
			<path class="st15" d="M769.92,803.47c0,0,20.1,1.24,37.62-15.16s16.73-37.18,16.73-37.18s-23.25-2.36-41.18,17.61
				C767.29,786.33,769.92,803.47,769.92,803.47z"/>
			<path class="st16" d="M771.04,749.78l54.35-56.36c0,0-23.25-2.36-41.18,17.61C768.42,728.62,771.04,749.78,771.04,749.78z"/>
			<path class="st17" d="M771.04,749.78c0,0,20.1,1.24,37.62-15.16c17.52-16.4,16.73-41.2,16.73-41.2L771.04,749.78z"/>
		</g>
		<ellipse class="st0" cx="645.13" cy="440" rx="166.63" ry="176.5"/>
		<path class="st1" d="M653.06,248.5c0,0-75-2-127,29c-78.35,46.71-57,134-57,134s67.78,6.43,94-14
			C591.59,375.27,653.06,248.5,653.06,248.5z"/>
		<path class="st1" d="M558.06,266.5c0,0,136.25-50.82,220,22c46,40,54,148,54,148s-187.22-67.31-217-92
			C581.96,317.06,558.06,266.5,558.06,266.5z"/>
	</g>
	<g class="st5">
		<path class="st1" d="M1221.4,743.5c-24-46-77-81-77-81s-77.08,37.41-140,37v0c-0.17,0-0.33,0-0.5,0c-0.17,0-0.33,0-0.5,0v0
			c-62.92,0.41-140-37-140-37s-53,35-77,81c-31.52,60.42-47,258-47,258h264.23h0.54h264.23
			C1268.4,1001.5,1252.92,803.92,1221.4,743.5z"/>
		<g>
			<g>
				<path class="st6" d="M1113.64,824.69c0.23-3.55,3.08-6.43,6.63-6.69c0.31-0.02,0.61-0.03,0.91-0.01c0,0-0.36,1.34-0.36,3.36
					c0,2.92,0.22,3.59,0.22,3.59s0.67,0.22,3.37,0.22c2.25,0,3.58-0.38,3.58-0.38c0.02,0.4,0.01,0.8-0.04,1.21
					c-0.37,3.31-3.04,5.96-6.36,6.31C1117.11,832.79,1113.35,829.14,1113.64,824.69z"/>
			</g>
			<path class="st13" d="M1066.45,823.16c0,0-1.24,20.1,15.16,37.62s39.19,16.73,39.19,16.73s2.36-21.24-17.61-39.17
				C1085.6,822.55,1066.45,823.16,1066.45,823.16z"/>
			<path class="st14" d="M1120.76,768.7c0,0-20.1-1.24-37.62,15.16c-17.52,16.4-16.73,39.19-16.73,39.19s23.25,4.37,41.18-15.6
				C1123.38,789.85,1120.76,768.7,1120.76,768.7z"/>
			<path class="st15" d="M1120.92,877.47c0,0,20.1,1.24,37.62-15.16c17.52-16.4,16.73-37.18,16.73-37.18s-23.25-2.36-41.18,17.61
				C1118.29,860.33,1120.92,877.47,1120.92,877.47z"/>
			<path class="st16" d="M1122.04,823.78l54.35-56.36c0,0-23.25-2.36-41.18,17.61C1119.42,802.62,1122.04,823.78,1122.04,823.78z"/>
			<path class="st17" d="M1122.04,823.78c0,0,20.1,1.24,37.62-15.16s16.73-41.2,16.73-41.2L1122.04,823.78z"/>
		</g>
		<ellipse class="st0" cx="1005.61" cy="509" rx="166.63" ry="176.5"/>
		<path class="st1" d="M1016.06,321.5c0,0-75-2-127,29c-78.35,46.71-57,134-57,134s67.78,6.43,94-14
			C954.59,448.27,1016.06,321.5,1016.06,321.5z"/>
		<path class="st1" d="M921.06,339.5c0,0,136.25-50.82,220,22c46,40,54,148,54,148s-187.22-67.31-217-92
			C944.96,390.06,921.06,339.5,921.06,339.5z"/>
	</g>
</g>
<g class="st4">
	<g class="st5">
		<path d="M943,697c-24-46-77-81-77-81s-77.08,37.41-140,37v0c-0.17,0-0.33,0-0.5,0c-0.17,0-0.33,0-0.5,0v0
			c-62.92,0.41-140-37-140-37s-53,35-77,81c-31.52,60.42-47,258-47,258h264.23h0.54H990C990,955,974.52,757.42,943,697z"/>
		<g>
			<g>
				<path class="st6" d="M832.23,767.2c0.23-3.55,3.08-6.43,6.63-6.69c0.31-0.02,0.61-0.03,0.91-0.01c0,0-0.36,1.34-0.36,3.36
					c0,2.92,0.22,3.59,0.22,3.59s0.67,0.22,3.37,0.22c2.25,0,3.58-0.38,3.58-0.38c0.02,0.4,0.01,0.8-0.04,1.21
					c-0.37,3.31-3.04,5.96-6.36,6.31C835.71,775.29,831.95,771.64,832.23,767.2z"/>
			</g>
			<path class="st13" d="M785.05,765.66c0,0-1.24,20.1,15.16,37.62c16.4,17.52,39.19,16.73,39.19,16.73s2.36-21.24-17.61-39.17
				C804.2,765.05,785.05,765.66,785.05,765.66z"/>
			<path class="st14" d="M839.36,711.2c0,0-20.1-1.24-37.62,15.16c-17.52,16.4-16.73,39.19-16.73,39.19s23.25,4.37,41.18-15.6
				C841.98,732.35,839.36,711.2,839.36,711.2z"/>
			<path class="st15" d="M839.52,819.97c0,0,20.1,1.24,37.62-15.16c17.52-16.4,16.73-37.18,16.73-37.18s-23.25-2.36-41.18,17.61
				C836.89,802.84,839.52,819.97,839.52,819.97z"/>
			<path class="st16" d="M840.64,766.28l54.35-56.36c0,0-23.25-2.36-41.18,17.61C838.02,745.12,840.64,766.28,840.64,766.28z"/>
			<path class="st17" d="M840.64,766.28c0,0,20.1,1.24,37.62-15.16c17.52-16.4,16.73-41.2,16.73-41.2L840.64,766.28z"/>
		</g>
		<ellipse class="st0" cx="714.73" cy="456.5" rx="166.63" ry="176.5"/>
		<path class="st1" d="M722.66,265c0,0-75-2-127,29c-78.35,46.71-57,134-57,134s67.78,6.43,94-14
			C661.19,391.77,722.66,265,722.66,265z"/>
		<path class="st1" d="M627.66,283c0,0,136.25-50.82,220,22c46,40,54,148,54,148s-187.22-67.31-217-92
			C651.56,333.57,627.66,283,627.66,283z"/>
	</g>
	<g class="st5">
		<path class="st1" d="M1291,760c-24-46-77-81-77-81s-77.08,37.41-140,37v0c-0.17,0-0.33,0-0.5,0c-0.17,0-0.33,0-0.5,0v0
			c-62.92,0.41-140-37-140-37s-53,35-77,81c-31.52,60.42-47,258-47,258h264.23h0.54H1338C1338,1018,1322.52,820.42,1291,760z"/>
		<g>
			<g>
				<path class="st6" d="M1183.23,841.2c0.23-3.55,3.08-6.43,6.63-6.69c0.31-0.02,0.61-0.03,0.91-0.01c0,0-0.36,1.34-0.36,3.36
					c0,2.92,0.22,3.59,0.22,3.59s0.67,0.22,3.37,0.22c2.25,0,3.58-0.38,3.58-0.38c0.02,0.4,0.01,0.8-0.04,1.21
					c-0.37,3.31-3.04,5.96-6.36,6.31C1186.71,849.29,1182.95,845.64,1183.23,841.2z"/>
			</g>
			<path class="st13" d="M1136.05,839.66c0,0-1.24,20.1,15.16,37.62s39.19,16.73,39.19,16.73s2.36-21.24-17.61-39.17
				C1155.2,839.05,1136.05,839.66,1136.05,839.66z"/>
			<path class="st14" d="M1190.36,785.2c0,0-20.1-1.24-37.62,15.16c-17.52,16.4-16.73,39.19-16.73,39.19s23.25,4.37,41.18-15.6
				C1192.98,806.35,1190.36,785.2,1190.36,785.2z"/>
			<path class="st15" d="M1190.52,893.97c0,0,20.1,1.24,37.62-15.16c17.52-16.4,16.73-37.18,16.73-37.18s-23.25-2.36-41.18,17.61
				C1187.89,876.84,1190.52,893.97,1190.52,893.97z"/>
			<path class="st16" d="M1191.64,840.28l54.35-56.36c0,0-23.25-2.36-41.18,17.61C1189.02,819.12,1191.64,840.28,1191.64,840.28z"/>
			<path class="st17" d="M1191.64,840.28c0,0,20.1,1.24,37.62-15.16c17.52-16.4,16.73-41.2,16.73-41.2L1191.64,840.28z"/>
		</g>
		<ellipse class="st0" cx="1075.21" cy="525.5" rx="166.63" ry="176.5"/>
		<path class="st1" d="M1085.66,338c0,0-75-2-127,29c-78.35,46.71-57,134-57,134s67.78,6.43,94-14
			C1024.19,464.77,1085.66,338,1085.66,338z"/>
		<path class="st1" d="M990.66,356c0,0,136.25-50.82,220,22c46,40,54,148,54,148s-187.22-67.31-217-92
			C1014.56,406.57,990.66,356,990.66,356z"/>
	</g>
</g>
<g>
	<path d="M1223.41,898.19l0.19-66.07c0,0-165.34,4.22-265.59-34.58c-121.6-47.07-127.89-162.33-245.34-234.14
		c-91.79-56.13-232.43-47.6-232.43-47.6l-0.05,77.69L265.09,481.01l215.24-112.23l-0.04,66.07c0,0,178.22-13.47,297.66,54.58
		c107.57,61.28,122.19,174.85,194.48,220.11c89.53,56.05,251.4,41.63,251.4,41.63l0.22-77.69l214.85,112.88L1223.41,898.19z"/>
	<g>
		<g>
			<g>
				<path class="st6" d="M795.02,600.67c1.27-19.65,17.09-35.64,36.73-37.08c1.7-0.13,3.38-0.14,5.03-0.06c0,0-2.02,7.42-2.02,18.62
					c0,16.18,1.24,19.91,1.24,19.91s3.73,1.25,18.67,1.24c12.45,0,19.86-2.1,19.86-2.1c0.11,2.2,0.05,4.45-0.21,6.73
					c-2.07,18.35-16.87,33.03-35.23,34.97C814.27,645.53,793.43,625.31,795.02,600.67z"/>
			</g>
			<path class="st13" d="M832.27,904.5c0,0,13.07-128.82-97.58-228.18c-97.52-87.57-203.62-73.03-203.62-73.03
				s-6.85,111.39,84.01,208.48S832.27,904.5,832.27,904.5"/>
			<path class="st14" d="M832.02,301.49c0,0-111.39-6.85-208.48,84.01s-92.73,217.19-92.73,217.19s128.82,13.07,228.18-97.58
				C846.55,407.58,832.02,301.49,832.02,301.49z"/>
			<path class="st15" d="M832.89,904.25c0,0,111.39,6.85,208.48-84.01s92.73-217.19,92.73-217.19s-128.82-13.07-228.18,97.58
				C818.35,798.15,832.89,904.25,832.89,904.25"/>
			<path class="st16" d="M841.6,595.58l301.2-301.2c0,0-128.82-13.07-228.18,97.58C827.06,489.48,841.6,595.58,841.6,595.58z"/>
			<path class="st18" d="M841.6,595.58c0,0,111.39,6.85,208.48-84.01s92.73-217.19,92.73-217.19L841.6,595.58z"/>
		</g>
	</g>
	<g>
		<path class="st19" d="M1017.49,814.42c1.02,28.84,9.82,49.69,39.15,49.69c22.27,0,33.86-15.84,33.86-38.7
			c0-28.14-11.71-42.74-50.77-60.03c-75.95-32.61-106.22-63.21-106.22-130.03c0-66.68,44.41-113.64,119.88-113.64
			c84.68,0,119.44,40.67,121.08,113.04h-85.33c-0.8-28.69-11.43-44.25-35.5-44.25c-21.03,0-31.22,13.91-31.22,36.25
			c0,23.4,12.92,37.37,55.21,55.34c73.89,30.82,103.67,67.65,103.67,131.22c0,71.06-37.22,119.59-126.23,119.59
			c-93.46,0-124.18-52.4-125.86-118.49H1017.49z M1025.35,544.34v-52.46h62.06v52.46H1025.35z M1025.35,973.11v-51.92h62.06v51.92
			H1025.35z"/>
	</g>
</g>
</svg>
