<?xml version="1.0" encoding="utf-8"?>
<!-- Generator: Adobe Illustrator 23.0.3, SVG Export Plug-In . SVG Version: 6.00 Build 0)  -->
<svg width="360" height="270" version="1.1" id="Layer_1" xmlns="http://www.w3.org/2000/svg" xmlns:xlink="http://www.w3.org/1999/xlink" x="0px" y="0px"
	 viewBox="0 0 1680 1260" style="enable-background:new 0 0 1680 1260;" xml:space="preserve">
<style type="text/css">
	.st0{fill:none;stroke:#000000;stroke-width:16;stroke-miterlimit:10;}
	.st1{stroke:#FFFFFF;stroke-width:20;stroke-miterlimit:10;stroke-opacity:0;}
	.st2{fill:#EAEA3D;stroke:#FFFFFF;stroke-width:15;stroke-miterlimit:10;stroke-opacity:0;}
	.st3{fill:url(#SVGID_1_);}
	.st4{display:none;}
	.st5{display:inline;}
	.st6{fill:#FFFFFF;}
	.st7{display:inline;fill:#F44C4C;}
	.st8{display:inline;fill:#FC7E7E;}
	.st9{display:inline;fill:#CD111E;}
	.st10{display:inline;fill:#0FB400;}
	.st11{display:inline;fill:#6FD266;}
</style>
<path d="M347,729c24-46,77-81,77-81s77.08,37.41,140,37v0c0.17,0,0.33,0,0.5,0c0.17,0,0.33,0,0.5,0v0c62.92,0.41,140-37,140-37
	s53,35,77,81c31.52,60.42,47,258,47,258H564.77h-0.54H300C300,987,315.48,789.42,347,729z"/>
<ellipse class="st0" cx="575.27" cy="488.5" rx="166.63" ry="176.5"/>
<path class="st1" d="M567.34,297c0,0,75-2,127,29c78.35,46.71,57,134,57,134s-67.78,6.43-94-14C628.81,423.77,567.34,297,567.34,297
	z"/>
<path class="st1" d="M662.34,315c0,0-136.25-50.82-220,22c-46,40-54,148-54,148s187.22-67.31,217-92
	C638.44,365.57,662.34,315,662.34,315z"/>
<path class="st1" d="M1323,728c-24-46-77-81-77-81s-77.08,37.41-140,37v0c-0.17,0-0.33,0-0.5,0c-0.17,0-0.33,0-0.5,0v0
	c-62.92,0.41-140-37-140-37s-53,35-77,81c-31.52,60.42-47,258-47,258h264.23h0.54H1370C1370,986,1354.52,788.42,1323,728z"/>
<ellipse class="st0" cx="1107.21" cy="493.5" rx="166.63" ry="176.5"/>
<path class="st1" d="M1117.66,306c0,0-75-2-127,29c-78.35,46.71-57,134-57,134s67.78,6.43,94-14
	C1056.19,432.77,1117.66,306,1117.66,306z"/>
<path class="st1" d="M1022.66,324c0,0,136.25-50.82,220,22c46,40,54,148,54,148s-187.22-67.31-217-92
	C1046.56,374.57,1022.66,324,1022.66,324z"/>
<polygon class="st2" points="861.5,360.5 1048,363.5 866.5,606.5 967.5,606.5 689,922.5 799,623.5 759.5,623.5 "/>
<radialGradient id="SVGID_1_" cx="840.5" cy="630" r="779.8475" gradientTransform="matrix(0.8745 0 0 1.1624 105.4453 -102.2878)" gradientUnits="userSpaceOnUse">
	<stop  offset="0" style="stop-color:#FFFFFF"/>
	<stop  offset="1" style="stop-color:#29ABE2"/>
</radialGradient>
<rect x="0.5" class="st3" width="1680" height="1260"/>
<g>
	<g>
		<path d="M342.9,720.75c24-46,77-81,77-81s77.08,37.41,140,37v0c0.17,0,0.33,0,0.5,0c0.17,0,0.33,0,0.5,0v0
			c62.92,0.41,140-37,140-37s53,35,77,81c31.52,60.42,47,258,47,258H560.67h-0.54H295.9C295.9,978.75,311.38,781.16,342.9,720.75z"
			/>
		<g class="st4">
			<g class="st5">
				<path class="st6" d="M438.14,790.94c0.23-3.55,3.08-6.43,6.63-6.69c0.31-0.02,0.61-0.03,0.91-0.01c0,0-0.36,1.34-0.36,3.36
					c0,2.92,0.22,3.59,0.22,3.59s0.67,0.22,3.37,0.22c2.25,0,3.58-0.38,3.58-0.38c0.02,0.4,0.01,0.8-0.04,1.21
					c-0.37,3.31-3.04,5.96-6.36,6.31C441.61,799.04,437.85,795.39,438.14,790.94z"/>
			</g>
			<path class="st7" d="M390.96,789.41c0,0-1.24,20.1,15.16,37.62c16.4,17.52,39.19,16.73,39.19,16.73s2.36-21.24-17.61-39.17
				C410.1,788.79,390.96,789.41,390.96,789.41z"/>
			<path class="st8" d="M445.26,734.94c0,0-20.1-1.24-37.62,15.16c-17.52,16.4-16.73,39.19-16.73,39.19s23.25,4.37,41.18-15.6
				C447.89,756.1,445.26,734.94,445.26,734.94z"/>
			<path class="st9" d="M445.42,843.72c0,0,20.1,1.24,37.62-15.16c17.52-16.4,16.73-37.18,16.73-37.18s-23.25-2.36-41.18,17.61
				C442.8,826.58,445.42,843.72,445.42,843.72z"/>
			<path class="st10" d="M446.54,790.02l54.35-56.36c0,0-23.25-2.36-41.18,17.61C443.92,768.87,446.54,790.02,446.54,790.02z"/>
			<path class="st11" d="M446.54,790.02c0,0,20.1,1.24,37.62-15.16c17.52-16.4,16.73-41.2,16.73-41.2L446.54,790.02z"/>
		</g>
		<ellipse class="st0" cx="571.17" cy="480.25" rx="166.63" ry="176.5"/>
		<path class="st1" d="M563.25,288.75c0,0,75-2,127,29c78.35,46.71,57,134,57,134s-67.78,6.43-94-14
			C624.72,415.52,563.25,288.75,563.25,288.75z"/>
		<path class="st1" d="M658.25,306.75c0,0-136.25-50.82-220,22c-46,40-54,148-54,148s187.22-67.31,217-92
			C634.34,357.31,658.25,306.75,658.25,306.75z"/>
	</g>
	<g>
		<path class="st1" d="M1318.9,719.75c-24-46-77-81-77-81s-77.08,37.41-140,37v0c-0.17,0-0.33,0-0.5,0c-0.17,0-0.33,0-0.5,0v0
			c-62.92,0.41-140-37-140-37s-53,35-77,81c-31.52,60.42-47,258-47,258h264.23h0.54h264.23
			C1365.9,977.75,1350.43,780.16,1318.9,719.75z"/>
		<g class="st4">
			<g class="st5">
				<path class="st6" d="M1238.14,791.94c0.23-3.55,3.08-6.43,6.63-6.69c0.31-0.02,0.61-0.03,0.91-0.01c0,0-0.36,1.34-0.36,3.36
					c0,2.92,0.22,3.59,0.22,3.59s0.67,0.22,3.37,0.22c2.25,0,3.58-0.38,3.58-0.38c0.02,0.4,0.01,0.8-0.04,1.21
					c-0.37,3.31-3.04,5.96-6.36,6.31C1241.61,800.04,1237.85,796.39,1238.14,791.94z"/>
			</g>
			<path class="st7" d="M1190.96,790.41c0,0-1.24,20.1,15.16,37.62c16.4,17.52,39.19,16.73,39.19,16.73s2.36-21.24-17.61-39.17
				C1210.1,789.79,1190.96,790.41,1190.96,790.41z"/>
			<path class="st8" d="M1245.26,735.94c0,0-20.1-1.24-37.62,15.16c-17.52,16.4-16.73,39.19-16.73,39.19s23.25,4.37,41.18-15.6
				C1247.89,757.1,1245.26,735.94,1245.26,735.94z"/>
			<path class="st9" d="M1245.42,844.72c0,0,20.1,1.24,37.62-15.16c17.52-16.4,16.73-37.18,16.73-37.18s-23.25-2.36-41.18,17.61
				C1242.8,827.58,1245.42,844.72,1245.42,844.72z"/>
			<path class="st10" d="M1246.54,791.02l54.35-56.36c0,0-23.25-2.36-41.18,17.61C1243.92,769.87,1246.54,791.02,1246.54,791.02z"/>
			<path class="st11" d="M1246.54,791.02c0,0,20.1,1.24,37.62-15.16c17.52-16.4,16.73-41.2,16.73-41.2L1246.54,791.02z"/>
		</g>
		<ellipse class="st0" cx="1103.11" cy="485.25" rx="166.63" ry="176.5"/>
		<path class="st1" d="M1113.56,297.75c0,0-75-2-127,29c-78.35,46.71-57,134-57,134s67.78,6.43,94-14
			C1052.09,424.52,1113.56,297.75,1113.56,297.75z"/>
		<path class="st1" d="M1018.56,315.75c0,0,136.25-50.82,220,22c46,40,54,148,54,148s-187.22-67.31-217-92
			C1042.46,366.31,1018.56,315.75,1018.56,315.75z"/>
	</g>
	<polygon class="st2" points="857.4,352.25 1043.9,355.25 862.4,598.25 963.4,598.25 684.9,914.25 794.9,615.25 755.4,615.25 	"/>
</g>
</svg>
