<?xml version="1.0" encoding="utf-8"?>
<!-- Generator: Adobe Illustrator 23.0.3, SVG Export Plug-In . SVG Version: 6.00 Build 0)  -->
<svg version="1.1" xmlns="http://www.w3.org/2000/svg" xmlns:xlink="http://www.w3.org/1999/xlink" x="0px" y="0px"
	 viewBox="0 0 1920 1080" style="enable-background:new 0 0 1920 1080;" xml:space="preserve">
<style type="text/css">
	.st0{display:none;}
	.st1{fill:#169F00;}
	.st2{fill:#00C949;}
	.st3{fill:#73E573;}
	.st4{fill:#ADF2B5;}
</style>
<g id="Layer_2" class="st0">
</g>
<g id="Layer_1">
	<g>
		<g>
			<polygon class="st1" points="1735.98,106.2 1919.92,212.39 1919.92,0 			"/>
		</g>
		<g>
			<polygon class="st2" points="1919.92,211.65 1735.98,105.46 1735.98,317.85 			"/>
		</g>
		<g>
			<polygon class="st3" points="1735.98,317.11 1919.92,423.31 1919.92,210.91 			"/>
		</g>
		<g>
			<polygon class="st3" points="1551.56,422.02 1735.5,528.22 1735.5,315.82 			"/>
		</g>
		<g>
			<polygon class="st1" points="1551.56,632.93 1735.5,739.13 1735.5,526.74 			"/>
		</g>
		<g>
			<polygon class="st4" points="1919.92,422.57 1735.98,316.37 1735.98,528.76 			"/>
		</g>
		<g>
			<polygon class="st2" points="1735.5,527.48 1551.56,421.28 1551.56,633.67 			"/>
		</g>
		<g>
			<polygon class="st3" points="1550.96,632.99 1367.02,526.81 1367.03,739.2 			"/>
		</g>
		<g>
			<polygon class="st1" points="1550.95,422.07 1367,315.89 1367.02,528.28 			"/>
		</g>
		<g>
			<polygon class="st4" points="1367.06,527.59 1551.01,633.77 1550.99,421.38 			"/>
		</g>
	</g>
	<g>
		<polygon class="st2" points="1367.98,740.11 1551.92,846.31 1551.92,633.91 		"/>
	</g>
	<g>
		<polygon class="st1" points="1183.56,845.02 1367.5,951.22 1367.5,738.82 		"/>
	</g>
	<g>
		<polygon class="st4" points="1551.92,845.57 1367.98,739.37 1367.98,951.76 		"/>
	</g>
	<g>
		<polygon class="st3" points="1367.56,952.02 1551.5,1058.22 1551.5,845.82 		"/>
	</g>
</g>
</svg>
