<?xml version="1.0" encoding="utf-8"?>
<!-- Generator: Adobe Illustrator 23.0.3, SVG Export Plug-In . SVG Version: 6.00 Build 0)  -->
<svg version="1.1" xmlns="http://www.w3.org/2000/svg" xmlns:xlink="http://www.w3.org/1999/xlink" x="0px" y="0px"
	 viewBox="0 0 1920 1080" style="enable-background:new 0 0 1920 1080;" xml:space="preserve">
<style type="text/css">
	.st0{fill:#169F00;}
	.st1{fill:#00C949;}
	.st2{fill:#73E573;}
	.st3{fill:#ADF2B5;}
</style>
<g id="Layer_2">
</g>
<g id="Layer_1">
	<g>
		<g>
			<polygon class="st0" points="1793.25,73.13 1919.92,146.26 1919.92,0 			"/>
		</g>
		<g>
			<polygon class="st1" points="1919.92,145.75 1793.25,72.62 1793.25,218.89 			"/>
		</g>
		<g>
			<polygon class="st2" points="1793.25,218.38 1919.92,291.51 1919.92,145.25 			"/>
		</g>
		<g>
			<polygon class="st2" points="1666.25,290.62 1792.92,363.75 1792.92,217.49 			"/>
		</g>
		<g>
			<polygon class="st0" points="1666.25,435.87 1792.92,509 1792.92,362.74 			"/>
		</g>
		<g>
			<polygon class="st3" points="1919.92,291 1793.25,217.87 1793.25,364.13 			"/>
		</g>
		<g>
			<polygon class="st1" points="1792.92,363.25 1666.25,290.11 1666.25,436.38 			"/>
		</g>
		<g>
			<polygon class="st2" points="1665.84,435.91 1539.16,362.78 1539.18,509.05 			"/>
		</g>
		<g>
			<polygon class="st0" points="1665.83,290.66 1539.15,217.54 1539.16,363.8 			"/>
		</g>
		<g>
			<polygon class="st3" points="1539.2,363.33 1665.87,436.45 1665.86,290.18 			"/>
		</g>
	</g>
	<g>
		<polygon class="st2" points="126.84,1005.91 0.16,932.78 0.18,1079.05 		"/>
	</g>
	<g>
		<polygon class="st0" points="0.25,787.13 126.92,860.26 126.92,714 		"/>
	</g>
	<g>
		<polygon class="st1" points="126.92,859.75 0.25,786.62 0.25,932.89 		"/>
	</g>
</g>
</svg>
