<?xml version="1.0" encoding="utf-8"?>
<!-- Generator: Adobe Illustrator 23.0.3, SVG Export Plug-In . SVG Version: 6.00 Build 0)  -->
<svg width="60" height="70" version="1.1" id="Layer_1" xmlns="http://www.w3.org/2000/svg" xmlns:xlink="http://www.w3.org/1999/xlink" x="0px" y="0px"
	 viewBox="0 0 1080 1920" style="enable-background:new 0 0 1080 1920;" xml:space="preserve">
<style type="text/css">
	.st0{fill:#169F00;}
	.st1{fill:#00C949;}
	.st2{fill:#73E573;}
	.st3{fill:#ADF2B5;}
	.st4{fill:url(#SVGID_1_);}
</style>
<g>
	<polygon class="st0" points="136,381.03 482.99,581.36 482.99,180.7 	"/>
</g>
<g>
	<polygon class="st1" points="482.99,579.97 136,379.64 136,780.3 	"/>
</g>
<g>
	<polygon class="st2" points="136,778.91 482.99,979.24 482.99,578.58 	"/>
</g>
<g>
	<polygon class="st2" points="136,1176.79 482.99,1377.12 482.99,976.46 	"/>
</g>
<g>
	<polygon class="st0" points="136,1574.67 482.99,1775 482.99,1374.33 	"/>
</g>
<g>
	<polygon class="st3" points="482.99,977.85 136,777.52 136,1178.18 	"/>
</g>
<g>
	<polygon class="st1" points="482.99,1375.73 136,1175.39 136,1576.06 	"/>
</g>
<g>
	<polygon class="st2" points="1019.68,889.93 672.67,689.63 672.7,1090.29 	"/>
</g>
<g>
	<polygon class="st0" points="1019.64,492.05 672.64,291.75 672.67,692.41 	"/>
</g>
<g>
	<polygon class="st3" points="672.76,691.11 1019.76,891.41 1019.73,490.75 	"/>
</g>
<linearGradient id="SVGID_1_" gradientUnits="userSpaceOnUse" x1="482.987" y1="691.0068" x2="672.7039" y2="691.0068">
	<stop  offset="0" style="stop-color:#B3B3B3"/>
	<stop  offset="0.2382" style="stop-color:#C3C3C3;stop-opacity:0.7618"/>
	<stop  offset="1" style="stop-color:#F2F2F2;stop-opacity:0"/>
</linearGradient>
<polygon class="st4" points="482.99,1199.92 672.7,1090.29 672.64,291.75 482.99,182.09 "/>
</svg>
