<?xml version="1.0" encoding="utf-8"?>
<!-- Generator: Adobe Illustrator 23.0.3, SVG Export Plug-In . SVG Version: 6.00 Build 0)  -->
<svg version="1.1" id="Layer_1" xmlns="http://www.w3.org/2000/svg" xmlns:xlink="http://www.w3.org/1999/xlink" x="0px" y="0px"
	 viewBox="0 0 1920 1080" style="enable-background:new 0 0 1920 1080;" xml:space="preserve">
<style type="text/css">
	.st0{fill:#FFFFFF;}
	.st1{fill:#F44C4C;}
	.st2{fill:#FFFFFF;stroke:#000000;stroke-miterlimit:10;}
	.st3{fill:#FC7E7E;}
	.st4{fill:#CD111E;}
	.st5{fill:#0FB400;}
	.st6{opacity:0.6;fill:#0FB400;}
	.st7{font-family:'Comfortaa-Regular';}
	.st8{font-size:250px;}
</style>
<g>
	<circle cx="945" cy="407" r="31.5"/>
	<path class="st0" d="M945,376c17.09,0,31,13.91,31,31s-13.91,31-31,31s-31-13.91-31-31S927.91,376,945,376 M945,375
		c-17.67,0-32,14.33-32,32s14.33,32,32,32s32-14.33,32-32S962.67,375,945,375L945,375z"/>
</g>
<g>
	<path class="st0" d="M946.52,406.9c0,0,99.65,6.09,186.5-74.72S1215.97,139,1215.97,139L946.52,406.9z"/>
</g>
<g>
	<path class="st0" d="M946.8,407l267.01-267.58c0,0-114.2-11.61-202.27,86.69C933.91,312.75,946.8,407,946.8,407z"/>
</g>
<path class="st1" d="M703,408c0,0-5.5,89.5,67.5,167.5S945,650,945,650s10.5-103.5-78.4-183.33C788.24,396.32,703,408,703,408z"/>
<path class="st2" d="M835.5,492.5"/>
<path class="st3" d="M944.79,165.51c0,0-89.5-5.5-167.5,67.5s-74.5,174.5-74.5,174.5s103.5,10.5,183.33-78.4
	C956.48,250.75,944.79,165.51,944.79,165.51z"/>
<path class="st4" d="M945.5,649.79c0,0,89.5,5.5,167.5-67.5s74.5-174.5,74.5-174.5s-103.5-10.5-183.33,78.4
	C933.81,564.55,945.5,649.79,945.5,649.79z"/>
<path class="st5" d="M956.5,397.79l242-242c0,0-103.5-10.5-183.33,78.4C944.81,312.55,956.5,397.79,956.5,397.79z"/>
<path class="st6" d="M956.5,397.79c0,0,89.5,5.5,167.5-67.5s74.5-174.5,74.5-174.5L956.5,397.79z"/>
<text transform="matrix(1 0 0 1 519.3633 879.2549)" class="st7 st8">parius</text>
</svg>
