<?xml version="1.0" encoding="utf-8"?>
<!-- Generator: Adobe Illustrator 23.0.3, SVG Export Plug-In . SVG Version: 6.00 Build 0)  -->
<svg width="400" height="230" version="1.1" id="Layer_1" xmlns="http://www.w3.org/2000/svg" xmlns:xlink="http://www.w3.org/1999/xlink" x="0px" y="0px"
	 viewBox="0 0 1920 1080" style="enable-background:new 0 0 1920 1080;" xml:space="preserve">
<style type="text/css">
	.st0{fill:#F44C4C;}
	.st1{fill:#FFFFFF;stroke:#000000;stroke-miterlimit:10;}
	.st2{fill:#FC7E7E;}
	.st3{fill:#CD111E;}
	.st4{fill:#0FB400;}
	.st5{opacity:0.6;fill:#0FB400;}
</style>
<g>
	<path d="M926.07,405.88c1.02-15.79,13.73-28.63,29.51-29.79c1.37-0.1,2.71-0.12,4.04-0.05c0,0-1.62,5.96-1.62,14.96c0,13,1,16,1,16
		s3,1,15,1c10,0,15.95-1.68,15.96-1.68c0.09,1.77,0.04,3.57-0.17,5.4c-1.66,14.74-13.55,26.53-28.3,28.09
		C941.53,441.93,924.79,425.68,926.07,405.88z"/>
</g>
<path class="st0" d="M703,408c0,0-5.5,89.5,67.5,167.5S945,650,945,650s10.5-103.5-78.4-183.33C788.24,396.32,703,408,703,408z"/>
<path class="st1" d="M835.5,492.5"/>
<path class="st2" d="M944.79,165.51c0,0-89.5-5.5-167.5,67.5s-74.5,174.5-74.5,174.5s103.5,10.5,183.33-78.4
	C956.48,250.75,944.79,165.51,944.79,165.51z"/>
<path class="st3" d="M945.5,649.79c0,0,89.5,5.5,167.5-67.5s74.5-174.5,74.5-174.5s-103.5-10.5-183.33,78.4
	C933.81,564.55,945.5,649.79,945.5,649.79z"/>
<path class="st4" d="M963.5,401.79l242-242c0,0-103.5-10.5-183.33,78.4C951.81,316.55,963.5,401.79,963.5,401.79z"/>
<path class="st5" d="M963.5,401.79c0,0,89.5,5.5,167.5-67.5s74.5-174.5,74.5-174.5L963.5,401.79z"/>
<g>
	<path d="M551.61,937.75c-3,0-5.38-0.88-7.13-2.63s-2.63-4.13-2.63-7.13V810c0.16-13,3.29-24.71,9.38-35.13
		c6.08-10.41,14.33-18.63,24.75-24.63c10.41-6,22.13-9,35.13-9c13.33,0,25.25,3.04,35.75,9.13c10.5,6.09,18.79,14.38,24.88,24.88
		c6.08,10.5,9.13,22.42,9.13,35.75c0,13.17-2.96,25-8.88,35.5c-5.92,10.5-13.96,18.79-24.13,24.88c-10.17,6.09-21.67,9.13-34.5,9.13
		c-11.17,0-21.29-2.38-30.38-7.13c-9.09-4.75-16.38-11.04-21.88-18.88V928c0,3-0.88,5.38-2.63,7.13S554.45,937.75,551.61,937.75z
		 M611.11,863c9.66,0,18.33-2.25,26-6.75c7.66-4.5,13.71-10.71,18.13-18.63c4.41-7.91,6.63-16.79,6.63-26.63
		c0-10-2.21-18.91-6.63-26.75c-4.42-7.83-10.46-14.04-18.13-18.63c-7.67-4.58-16.34-6.88-26-6.88c-9.5,0-18.09,2.29-25.75,6.88
		c-7.67,4.59-13.67,10.79-18,18.63c-4.34,7.84-6.5,16.75-6.5,26.75c0,9.84,2.16,18.71,6.5,26.63c4.33,7.92,10.33,14.13,18,18.63
		C593.03,860.75,601.61,863,611.11,863z"/>
	<path d="M778.86,880.5c-12.84,0-24.34-3.04-34.5-9.13c-10.17-6.08-18.21-14.38-24.13-24.88c-5.92-10.5-8.88-22.33-8.88-35.5
		c0-13.33,3.04-25.25,9.13-35.75c6.08-10.5,14.38-18.79,24.88-24.88c10.5-6.08,22.33-9.13,35.5-9.13c13.16,0,24.96,3.04,35.38,9.13
		c10.41,6.09,18.66,14.38,24.75,24.88c6.08,10.5,9.21,22.42,9.38,35.75l-7.75,6c0,12-2.79,22.79-8.38,32.38
		c-5.59,9.59-13.17,17.17-22.75,22.75C801.9,877.72,791.02,880.5,778.86,880.5z M780.86,863c9.66,0,18.29-2.25,25.88-6.75
		c7.58-4.5,13.58-10.71,18-18.63c4.41-7.91,6.63-16.79,6.63-26.63c0-10-2.21-18.91-6.63-26.75c-4.42-7.83-10.42-14.04-18-18.63
		c-7.59-4.58-16.21-6.88-25.88-6.88c-9.5,0-18.09,2.29-25.75,6.88c-7.67,4.59-13.75,10.79-18.25,18.63
		c-4.5,7.84-6.75,16.75-6.75,26.75c0,9.84,2.25,18.71,6.75,26.63c4.5,7.92,10.58,14.13,18.25,18.63
		C762.77,860.75,771.36,863,780.86,863z M840.61,879.25c-2.84,0-5.17-0.88-7-2.63c-1.84-1.75-2.75-4.04-2.75-6.88V827l4.75-19.75
		l14.75,3.75v58.75c0,2.84-0.92,5.13-2.75,6.88C845.77,878.38,843.44,879.25,840.61,879.25z"/>
	<path d="M897.36,879.25c-3,0-5.34-0.83-7-2.5c-1.67-1.66-2.5-4-2.5-7V752c0-3,0.83-5.33,2.5-7c1.66-1.66,4-2.5,7-2.5
		s5.33,0.84,7,2.5c1.66,1.67,2.5,4,2.5,7v117.75c0,3-0.84,5.34-2.5,7C902.69,878.42,900.36,879.25,897.36,879.25z M895.86,795
		c0.5-10.33,3.21-19.58,8.13-27.75c4.91-8.16,11.33-14.58,19.25-19.25c7.91-4.66,16.71-7,26.38-7c7.66,0,13.58,1.09,17.75,3.25
		c4.16,2.17,5.75,5.34,4.75,9.5c-0.67,2.5-1.79,4.17-3.38,5c-1.59,0.84-3.5,1.17-5.75,1c-2.25-0.16-4.79-0.33-7.63-0.5
		c-9.34-0.83-17.63,0.13-24.88,2.88s-13,6.96-17.25,12.63c-4.25,5.67-6.38,12.42-6.38,20.25H895.86z"/>
	<path d="M1015.85,716.5c-3.67,0-6.84-1.33-9.5-4c-2.67-2.66-4-5.91-4-9.75c0-4.16,1.38-7.46,4.13-9.88
		c2.75-2.41,5.96-3.63,9.63-3.63c3.5,0,6.63,1.21,9.38,3.63c2.75,2.42,4.13,5.71,4.13,9.88c0,3.84-1.34,7.09-4,9.75
		C1022.94,715.17,1019.69,716.5,1015.85,716.5z M1016.1,879.25c-3,0-5.38-0.88-7.13-2.63s-2.63-4.13-2.63-7.13V752.25
		c0-3,0.88-5.38,2.63-7.13s4.13-2.63,7.13-2.63c2.83,0,5.13,0.88,6.88,2.63s2.63,4.13,2.63,7.13V869.5c0,3-0.88,5.38-2.63,7.13
		S1018.94,879.25,1016.1,879.25z"/>
	<path d="M1134.1,880.75c-11.84,0-22.42-2.46-31.75-7.38c-9.34-4.91-16.71-12.13-22.13-21.63c-5.42-9.5-8.13-21.08-8.13-34.75v-65
		c0-2.66,0.91-4.91,2.75-6.75c1.83-1.83,4.08-2.75,6.75-2.75c2.83,0,5.16,0.92,7,2.75c1.83,1.84,2.75,4.09,2.75,6.75v65
		c0,10.34,1.96,18.84,5.88,25.5c3.91,6.67,9.25,11.67,16,15c6.75,3.34,14.38,5,22.88,5c8.16,0,15.54-1.58,22.13-4.75
		c6.58-3.16,11.79-7.5,15.63-13c3.83-5.5,5.75-11.75,5.75-18.75h13.75c-0.5,10.5-3.38,19.88-8.63,28.13s-12.29,14.75-21.13,19.5
		C1154.76,878.38,1144.93,880.75,1134.1,880.75z M1189.1,879.25c-2.84,0-5.13-0.88-6.88-2.63s-2.63-4.13-2.63-7.13V752
		c0-2.83,0.88-5.13,2.63-6.88s4.04-2.63,6.88-2.63c2.83,0,5.16,0.88,7,2.63c1.83,1.75,2.75,4.04,2.75,6.88v117.5
		c0,3-0.92,5.38-2.75,7.13C1194.26,878.38,1191.93,879.25,1189.1,879.25z"/>
	<path d="M1291.6,880.5c-9.84,0-19.59-1.66-29.25-5c-9.67-3.33-17.5-8.33-23.5-15c-1.84-2-2.59-4.25-2.25-6.75
		c0.33-2.5,1.58-4.66,3.75-6.5c2.33-1.66,4.75-2.33,7.25-2c2.5,0.34,4.58,1.42,6.25,3.25c4,4.67,9.29,8.25,15.88,10.75
		c6.58,2.5,13.88,3.75,21.88,3.75c12.33,0,21.25-2.13,26.75-6.38s8.33-9.38,8.5-15.38c0-6-2.84-10.96-8.5-14.88
		c-5.67-3.91-15-6.96-28-9.13c-16.84-2.66-29.17-7.33-37-14c-7.84-6.66-11.75-14.58-11.75-23.75c0-8.5,2.25-15.58,6.75-21.25
		c4.5-5.66,10.5-9.91,18-12.75c7.5-2.83,15.75-4.25,24.75-4.25c11.16,0,20.79,1.92,28.88,5.75c8.08,3.84,14.63,9,19.63,15.5
		c1.66,2.17,2.33,4.42,2,6.75c-0.34,2.34-1.67,4.25-4,5.75c-2,1.17-4.29,1.54-6.88,1.13c-2.59-0.41-4.79-1.63-6.63-3.63
		c-4.17-4.83-9-8.38-14.5-10.63s-11.84-3.38-19-3.38c-9.17,0-16.5,1.88-22,5.63s-8.25,8.46-8.25,14.13c0,3.84,1.04,7.17,3.13,10
		c2.08,2.84,5.66,5.34,10.75,7.5c5.08,2.17,12.21,4,21.38,5.5c12.5,2,22.38,4.96,29.63,8.88c7.25,3.92,12.41,8.5,15.5,13.75
		c3.08,5.25,4.63,10.96,4.63,17.13c0,7.84-2.29,14.71-6.88,20.63c-4.59,5.92-10.92,10.54-19,13.88
		C1311.39,878.84,1302.1,880.5,1291.6,880.5z"/>
</g>
</svg>
